<svg width="368" height="400" viewBox="0 0 368 400" fill="none" xmlns="http://www.w3.org/2000/svg">
<path d="M123.156 181.686C114.759 179.178 109.532 169.599 113.08 160.782C118.781 146.617 127.59 134.384 138.706 125.439C153.924 113.193 172.41 107.958 190.672 110.721C208.934 113.485 225.707 124.056 237.822 140.438C249.937 156.819 256.554 177.877 256.423 199.631C256.293 221.385 249.424 242.329 237.114 258.506C224.804 274.683 207.905 284.973 189.612 287.43C171.319 289.888 152.897 284.343 137.828 271.844C126.823 262.716 118.163 250.34 112.633 236.085C109.189 227.209 114.543 217.705 122.978 215.334V215.334C131.753 212.869 140.42 219.23 145.286 227.707C148.208 232.797 151.907 237.264 156.238 240.856C164.896 248.038 175.481 251.224 185.993 249.812C196.504 248.4 206.214 242.488 213.287 233.192C220.36 223.897 224.307 211.862 224.382 199.363C224.457 186.863 220.655 174.763 213.694 165.35C206.733 155.937 197.095 149.863 186.602 148.275C176.108 146.687 165.486 149.695 156.742 156.732C152.38 160.242 148.637 164.633 145.658 169.657C140.672 178.065 131.909 184.302 123.156 181.686V181.686Z" fill="url(#paint0_linear_704_230)"/>
<path d="M220 395C-2.64 248.478 32.6289 127.881 216.883 16.2448C89.2486 11.261 19.5902 82.4088 1 218.5C64.3372 411.869 113.492 373.689 220 395Z" fill="url(#paint1_linear_704_230)"/>
<path d="M115.92 17.9975C362.784 160.522 323.042 268.071 115.92 382.997C267.72 403.997 346.337 323.504 368 187.412C294.194 -5.95703 215.28 12 115.92 17.9975Z" fill="url(#paint2_linear_704_230)"/>
<path d="M9 200C9 93.7924 88.042 9 184 9C279.958 9 359 93.7924 359 200C359 306.208 279.958 391 184 391C88.042 391 9 306.208 9 200Z" stroke="url(#paint3_linear_704_230)" stroke-width="18"/>
<defs>
<linearGradient id="paint0_linear_704_230" x1="184" y1="110" x2="184" y2="288" gradientUnits="userSpaceOnUse">
<stop stop-color="#BD0937"/>
<stop offset="0.5" stop-color="#EA6284"/>
<stop offset="1" stop-color="#BD0937"/>
</linearGradient>
<linearGradient id="paint1_linear_704_230" x1="111.321" y1="398" x2="111.321" y2="16" gradientUnits="userSpaceOnUse">
<stop stop-color="#570029"/>
<stop offset="0.5" stop-color="#FA0075"/>
<stop offset="1" stop-color="#61002D"/>
</linearGradient>
<linearGradient id="paint2_linear_704_230" x1="241.96" y1="14.6758" x2="241.96" y2="386.309" gradientUnits="userSpaceOnUse">
<stop stop-color="#0C568A"/>
<stop offset="0.526042" stop-color="#148FE6"/>
<stop offset="1" stop-color="#0C568A"/>
</linearGradient>
<linearGradient id="paint3_linear_704_230" x1="184" y1="400" x2="184" y2="0" gradientUnits="userSpaceOnUse">
<stop stop-color="#003B8F"/>
<stop offset="1" stop-color="#002963"/>
</linearGradient>
</defs>
</svg>
