<svg width="1397" height="207" viewBox="0 0 1397 207" fill="none" xmlns="http://www.w3.org/2000/svg">
<path d="M1014.32 206C903 132.739 919.314 70.9404 1011.44 15.1224C947.624 12.6305 912.295 48.2469 903 116.293C934.669 212.977 961.066 195.345 1014.32 206Z" fill="url(#paint0_linear_704_197)"/>
<path d="M960.96 15.9987C1084.39 87.2612 1064.52 141.036 960.96 198.499C1036.86 208.999 1076.17 168.752 1087 100.706C1050.1 4.02148 1010.64 13 960.96 15.9987Z" fill="url(#paint1_linear_704_197)"/>
<path d="M907.5 107C907.5 53.8962 947.021 11.5 995 11.5C1042.98 11.5 1082.5 53.8962 1082.5 107C1082.5 160.104 1042.98 202.5 995 202.5C947.021 202.5 907.5 160.104 907.5 107Z" stroke="url(#paint2_linear_704_197)" stroke-width="9"/>
<path d="M281.32 199C170 125.739 186.314 63.9404 278.441 8.12241C214.624 5.63052 179.295 41.2469 170 109.293C201.669 205.977 228.066 188.345 281.32 199Z" fill="url(#paint3_linear_704_197)"/>
<path d="M227.96 8.99874C351.392 80.2612 331.521 134.036 227.96 191.499C303.86 201.999 343.168 161.752 354 93.7062C317.097 -2.97852 277.64 6 227.96 8.99874Z" fill="url(#paint4_linear_704_197)"/>
<path d="M174.5 100C174.5 46.8962 214.021 4.5 262 4.5C309.979 4.5 349.5 46.8962 349.5 100C349.5 153.104 309.979 195.5 262 195.5C214.021 195.5 174.5 153.104 174.5 100Z" stroke="url(#paint5_linear_704_197)" stroke-width="9"/>
<path d="M158.034 15.1816V197H116.841L51.1449 101.474H50.0795V197H0.71875V15.1816H42.6222L107.253 110.352H108.673V15.1816H158.034Z" fill="black"/>
<path d="M415.434 15.1816L452.721 143.378H454.142L491.429 15.1816H547.182L487.167 197H419.696L359.682 15.1816H415.434Z" fill="black"/>
<path d="M582.138 197H528.871L588.885 15.1816H656.357L716.371 197H663.104L623.331 65.2527H621.911L582.138 197ZM572.195 125.267H672.337V162.199H572.195V125.267Z" fill="black"/>
<path d="M1098.72 197V15.1816H1177.2C1190.69 15.1816 1202.5 17.6378 1212.62 22.5503C1222.74 27.4627 1230.61 34.5353 1236.24 43.7683C1241.86 53.0012 1244.67 64.069 1244.67 76.9714C1244.67 89.9922 1241.77 100.971 1235.97 109.908C1230.23 118.845 1222.15 125.592 1211.73 130.15C1201.38 134.707 1189.27 136.986 1175.42 136.986H1128.55V98.6334H1165.48C1171.28 98.6334 1176.22 97.9231 1180.31 96.5027C1184.45 95.023 1187.62 92.6852 1189.81 89.4892C1192.05 86.2932 1193.18 82.1206 1193.18 76.9714C1193.18 71.7631 1192.05 67.5313 1189.81 64.2761C1187.62 60.9617 1184.45 58.5351 1180.31 56.9963C1176.22 55.3983 1171.28 54.5992 1165.48 54.5992H1148.08V197H1098.72ZM1205.25 113.548L1250.71 197H1197.09L1152.7 113.548H1205.25Z" fill="black"/>
<path d="M1265.71 197V15.1816H1396.75V54.9544H1315.07V86.2044H1390V125.977H1315.07V157.227H1396.39V197H1265.71Z" fill="black"/>
<path d="M895.463 82.3629H845.392C845.037 78.2199 844.09 74.4617 842.551 71.0881C841.072 67.7145 839 64.8144 836.337 62.3878C833.733 59.902 830.566 58.0081 826.838 56.706C823.109 55.3447 818.877 54.6641 814.142 54.6641C805.856 54.6641 798.843 56.6764 793.102 60.701C787.42 64.7256 783.099 70.4962 780.14 78.0128C777.24 85.5294 775.79 94.5552 775.79 105.09C775.79 116.217 777.27 125.539 780.229 133.055C783.247 140.513 787.598 146.135 793.279 149.923C798.961 153.652 805.797 155.516 813.787 155.516C818.344 155.516 822.428 154.954 826.039 153.83C829.649 152.646 832.786 150.959 835.449 148.769C838.112 146.579 840.273 143.946 841.93 140.868C843.646 137.731 844.8 134.21 845.392 130.303L895.463 130.658C894.871 138.353 892.711 146.195 888.983 154.185C885.254 162.116 879.957 169.455 873.091 176.202C866.285 182.89 857.851 188.276 847.789 192.359C837.728 196.443 826.039 198.485 812.722 198.485C796.032 198.485 781.058 194.904 767.8 187.743C754.602 180.581 744.155 170.046 736.461 156.138C728.826 142.229 725.009 125.213 725.009 105.09C725.009 84.8487 728.915 67.8033 736.728 53.9538C744.54 40.0452 755.075 29.5398 768.333 22.4375C781.59 15.276 796.387 11.6953 812.722 11.6953C824.204 11.6953 834.768 13.2637 844.416 16.4006C854.063 19.5374 862.527 24.1243 869.806 30.1612C877.086 36.139 882.946 43.5076 887.384 52.2671C891.823 61.0265 894.516 71.0585 895.463 82.3629Z" fill="black"/>
<defs>
<linearGradient id="paint0_linear_704_197" x1="958.66" y1="206" x2="958.66" y2="15" gradientUnits="userSpaceOnUse">
<stop stop-color="#570029"/>
<stop offset="0.5" stop-color="#FA0075"/>
<stop offset="1" stop-color="#61002D"/>
</linearGradient>
<linearGradient id="paint1_linear_704_197" x1="1023.98" y1="14.3379" x2="1023.98" y2="200.154" gradientUnits="userSpaceOnUse">
<stop stop-color="#0C568A"/>
<stop offset="0.526042" stop-color="#148FE6"/>
<stop offset="1" stop-color="#0C568A"/>
</linearGradient>
<linearGradient id="paint2_linear_704_197" x1="995" y1="207" x2="995" y2="7" gradientUnits="userSpaceOnUse">
<stop stop-color="#003B8F"/>
<stop offset="1" stop-color="#002963"/>
</linearGradient>
<linearGradient id="paint3_linear_704_197" x1="225.66" y1="199" x2="225.66" y2="8" gradientUnits="userSpaceOnUse">
<stop stop-color="#570029"/>
<stop offset="0.5" stop-color="#FA0075"/>
<stop offset="1" stop-color="#61002D"/>
</linearGradient>
<linearGradient id="paint4_linear_704_197" x1="290.98" y1="7.33789" x2="290.98" y2="193.154" gradientUnits="userSpaceOnUse">
<stop stop-color="#0C568A"/>
<stop offset="0.526042" stop-color="#148FE6"/>
<stop offset="1" stop-color="#0C568A"/>
</linearGradient>
<linearGradient id="paint5_linear_704_197" x1="262" y1="200" x2="262" y2="0" gradientUnits="userSpaceOnUse">
<stop stop-color="#003B8F"/>
<stop offset="1" stop-color="#002963"/>
</linearGradient>
</defs>
</svg>
